<mxfile host="app.diagrams.net" agent="Mozilla/5.0 (Macintosh; Intel Mac OS X 10_15_7) AppleWebKit/605.1.15 (KHTML, like Gecko) Version/18.4 Safari/605.1.15" version="27.0.6">
  <diagram name="Page-1" id="qCQBoRJt0O49EkEic1T_">
    <mxGraphModel dx="1216" dy="821" grid="1" gridSize="10" guides="1" tooltips="1" connect="1" arrows="1" fold="1" page="1" pageScale="1" pageWidth="827" pageHeight="1169" math="0" shadow="0">
      <root>
        <mxCell id="0" />
        <mxCell id="1" parent="0" />
        <!-- Inicio -->
        <mxCell id="start" value="Inicio" style="ellipse;whiteSpace=wrap;html=1;" vertex="1" parent="1">
          <mxGeometry x="340" y="50" width="80" height="40" as="geometry" />
        </mxCell>
        <!-- Leer notas -->
        <mxCell id="input" value="Leer Nota1, Nota2, Nota3" style="rounded=0;whiteSpace=wrap;html=1;" vertex="1" parent="1">
          <mxGeometry x="320" y="120" width="120" height="60" as="geometry" />
        </mxCell>
        <!-- Calcular nota final -->
        <mxCell id="calc" value="notaFinal = (Nota1 * 0.30) + (Nota2 * 0.30D0Nota3 * 0.40)" style="rounded=0;whiteSpace=wrap;html=1;" vertex="1" parent="1">
          <mxGeometry x="320" y="200" width="120" height="60" as="geometry" />
        </mxCell>
        <!-- Condición Promociona -->
        <mxCell id="promo_dec" value="¿notaFinal ≥ 70 y Nota3 ≥ 60?" style="rhombus;whiteSpace=wrap;html=1;" vertex="1" parent="1">
          <mxGeometry x="340" y="280" width="80" height="80" as="geometry" />
        </mxCell>
        <!-- Resultado Promociona -->
        <mxCell id="promo" value="Promociona" style="rounded=0;whiteSpace=wrap;html=1;" vertex="1" parent="1">
          <mxGeometry x="460" y="280" width="100" height="40" as="geometry" />
        </mxCell>
        <!-- Condición Aprueba -->
        <mxCell id="aprob_dec" value="¿notaFinal ≥ 40?" style="rhombus;whiteSpace=wrap;html=1;" vertex="1" parent="1">
          <mxGeometry x="340" y="380" width="80" height="80" as="geometry" />
        </mxCell>
        <!-- Resultado Aprueba -->
        <mxCell id="aprob" value="Aprueba" style="rounded=0;whiteSpace=wrap;html=1;" vertex="1" parent="1">
          <mxGeometry x="460" y="380" width="100" height="40" as="geometry" />
        </mxCell>
        <!-- Resultado Reprueba -->
        <mxCell id="repr" value="Reprueba" style="rounded=0;whiteSpace=wrap;html=1;" vertex="1" parent="1">
          <mxGeometry x="340" y="480" width="100" height="40" as="geometry" />
        </mxCell>
        <!-- Fin -->
        <mxCell id="end" value="Fin" style="ellipse;whiteSpace=wrap;html=1;" vertex="1" parent="1">
          <mxGeometry x="340" y="560" width="80" height="40" as="geometry" />
        </mxCell>
        <!-- Conexiones -->
        <mxCell id="arrow1" style="edgeStyle=orthogonalEdgeStyle;rounded=0;html=1;" edge="1" parent="1" source="start" target="input">
          <mxGeometry relative="1" as="geometry" />
        </mxCell>
        <mxCell id="arrow2" style="edgeStyle=orthogonalEdgeStyle;rounded=0;html=1;" edge="1" parent="1" source="input" target="calc">
          <mxGeometry relative="1" as="geometry" />
        </mxCell>
        <mxCell id="arrow3" style="edgeStyle=orthogonalEdgeStyle;rounded=0;html=1;" edge="1" parent="1" source="calc" target="promo_dec">
          <mxGeometry relative="1" as="geometry" />
        </mxCell>
        <mxCell id="arrow4" value="Sí" style="edgeStyle=orthogonalEdgeStyle;rounded=0;html=1;" edge="1" parent="1" source="promo_dec" target="promo">
          <mxGeometry relative="1" as="geometry" />
        </mxCell>
        <mxCell id="arrow5" value="No" style="edgeStyle=orthogonalEdgeStyle;rounded=0;html=1;" edge="1" parent="1" source="promo_dec" target="aprob_dec">
          <mxGeometry relative="1" as="geometry" />
        </mxCell>
        <mxCell id="arrow6" value="Sí" style="edgeStyle=orthogonalEdgeStyle;rounded=0;html=1;" edge="1" parent="1" source="aprob_dec" target="aprob">
          <mxGeometry relative="1" as="geometry" />
        </mxCell>
        <mxCell id="arrow7" value="No" style="edgeStyle=orthogonalEdgeStyle;rounded=0;html=1;" edge="1" parent="1" source="aprob_dec" target="repr">
          <mxGeometry relative="1" as="geometry" />
        </mxCell>
        <mxCell id="arrow8" style="edgeStyle=orthogonalEdgeStyle;rounded=0;html=1;" edge="1" parent="1" source="promo" target="end">
          <mxGeometry relative="1" as="geometry">
            <mxPoint x="500" y="560" as="targetPoint" />
          </mxGeometry>
        </mxCell>
        <mxCell id="arrow9" style="edgeStyle=orthogonalEdgeStyle;rounded=0;html=1;" edge="1" parent="1" source="aprob" target="end">
          <mxGeometry relative="1" as="geometry">
            <mxPoint x="500" y="560" as="targetPoint" />
          </mxGeometry>
        </mxCell>
        <mxCell id="arrow10" style="edgeStyle=orthogonalEdgeStyle;rounded=0;html=1;" edge="1" parent="1" source="repr" target="end">
          <mxGeometry relative="1" as="geometry" />
        </mxCell>
      </root>
    </mxGraphModel>
  </diagram>
</mxfile>
